# xmcd
#
# Track frame offsets:
#	150
#	15012
#	36170
#	57536
#	77062
#	93537
#	112140
#	131233
#	154029
#	168874
#	189250
#	207865
#
# Disc length: 2890 seconds
#
# Revision: 0
# Processed by: cddbd v1.5.2PL0 Copyright (c) Steve Scherf et al.
# Submitted via: dBpowerAMP V4.0
#
DISCID=970b480c
DTITLE=Marcelo Crivella - Pai
DYEAR=2007
DGENRE=Gospel
TTITLE0=Agora é Outra História
TTITLE1=Eram Jovens
TTITLE2=Conta Comigo
TTITLE3=Rapaz Apaixonado
TTITLE4=Viemos Te Adorar
TTITLE5=Fé Inteligente
TTITLE6=Sonhos
TTITLE7=Pai Eu Adoro Você
TTITLE8=Pra Onde vai Você?
TTITLE9=Vem Pra Junto do Altar
TTITLE10=Nossa História
TTITLE11=Oração ao Pé da Cruz
EXTD=
EXTT0=
EXTT1=
EXTT2=
EXTT3=
EXTT4=
EXTT5=
EXTT6=
EXTT7=
EXTT8=
EXTT9=
EXTT10=
EXTT11=
PLAYORDER=
